{
  "accessors": [
    {
      "bufferView": 2,
      "componentType": 5126,
      "count": 24545,
      "max": [
        0.8164539933204651,
        1.346094012260437,
        0.7903460264205933
      ],
      "min": [
        -0.7277560234069824,
        -1.3263989686965942,
        -0.9284219741821289
      ],
      "type": "VEC3"
    },
    {
      "bufferView": 2,
      "byteOffset": 294540,
      "componentType": 5126,
      "count": 24545,
      "max": [
        0.9999974370002747,
        0.9999914765357971,
        0.99992835521698
      ],
      "min": [
        -0.9999465942382813,
        -0.9998245239257813,
        -0.9998928904533386
      ],
      "type": "VEC3"
    },
    {
      "bufferView": 1,
      "componentType": 5126,
      "count": 24545,
      "max": [
        0.9999899864196777,
        0.9464529752731323
      ],
      "min": [
        0.00012599999899975955,
        0.00010599999950500205
      ],
      "type": "VEC2"
    },
    {
      "bufferView": 0,
      "componentType": 5125,
      "count": 140586,
      "type": "SCALAR"
    }
  ],
  "asset": {
    "extras": {
      "author": "portunes (https://sketchfab.com/portunes)",
      "license": "CC-BY-4.0 (http://creativecommons.org/licenses/by/4.0/)",
      "source": "https://sketchfab.com/3d-models/minoan-ewer-3336c22c8b114743b1427f801fe85405",
      "title": "Minoan Ewer"
    },
    "generator": "Sketchfab-12.66.0",
    "version": "2.0"
  },
  "bufferViews": [
    {
      "buffer": 0,
      "byteLength": 562344,
      "name": "floatBufferViews",
      "target": 34963
    },
    {
      "buffer": 0,
      "byteLength": 196360,
      "byteOffset": 562344,
      "byteStride": 8,
      "name": "floatBufferViews",
      "target": 34962
    },
    {
      "buffer": 0,
      "byteLength": 589080,
      "byteOffset": 758704,
      "byteStride": 12,
      "name": "floatBufferViews",
      "target": 34962
    }
  ],
  "buffers": [
    {
      "byteLength": 1347784,
      "uri": "scene.bin"
    }
  ],
  "images": [
    {
      "uri": "textures/model_baseColor.jpeg"
    }
  ],
  "materials": [
    {
      "doubleSided": true,
      "name": "model",
      "pbrMetallicRoughness": {
        "baseColorTexture": {
          "index": 0
        },
        "metallicFactor": 0.0,
        "roughnessFactor": 0.6
      }
    }
  ],
  "meshes": [
    {
      "name": "Object_0",
      "primitives": [
        {
          "attributes": {
            "NORMAL": 1,
            "POSITION": 0,
            "TEXCOORD_0": 2
          },
          "indices": 3,
          "material": 0,
          "mode": 4
        }
      ]
    }
  ],
  "nodes": [
    {
      "children": [
        1
      ],
      "matrix": [
        0.9997884035110474,
        -4.567335654854421e-18,
        0.02056945115327835,
        0.0,
        0.01672866754233837,
        0.581876337528229,
        -0.8131052255630492,
        0.0,
        -0.011968877166509628,
        0.813277244567871,
        0.5817532539367678,
        0.0,
        -0.0009816493839025497,
        -0.018620491027832038,
        0.037410940974950783,
        1.0
      ],
      "name": "Sketchfab_model"
    },
    {
      "children": [
        2
      ],
      "name": "model.obj.cleaner.materialmerger.gles"
    },
    {
      "mesh": 0,
      "name": "Object_2"
    }
  ],
  "samplers": [
    {
      "magFilter": 9729,
      "minFilter": 9987,
      "wrapS": 10497,
      "wrapT": 10497
    }
  ],
  "scene": 0,
  "scenes": [
    {
      "name": "Sketchfab_Scene",
      "nodes": [
        0
      ]
    }
  ],
  "textures": [
    {
      "sampler": 0,
      "source": 0
    }
  ]
}
